<svg id="Layer_1" enable-background="new 0 0 256 256" height="512" viewBox="0 0 256 256" width="512" xmlns="http://www.w3.org/2000/svg"><g><g><circle cx="128" cy="146.448" fill="#4671c6" r="101.552"/></g><g><circle cx="128" cy="146.448" fill="#f9a7a7" r="80.543"/></g><g><path d="m148.963 32.98h-41.925c-2.315 0-4.193-1.877-4.193-4.193v-16.594c0-2.315 1.877-4.193 4.193-4.193h41.925c2.315 0 4.193 1.877 4.193 4.193v16.595c-.001 2.315-1.878 4.192-4.193 4.192z" fill="#6bdddd"/></g><g><path d="m57.284 73.599c4.178-4.056 8.693-7.765 13.517-11.06l-7.143-12.372c-1.158-2.006-3.722-2.692-5.727-1.534l-7.665 4.425c-2.005 1.158-2.692 3.722-1.535 5.728z" fill="#e0ebfc"/></g><g><path d="m198.716 73.599 8.553-14.814c1.158-2.006.471-4.57-1.535-5.727l-7.665-4.426c-2.005-1.158-4.569-.471-5.727 1.534l-7.143 12.372c4.824 3.295 9.339 7.005 13.517 11.061z" fill="#e0ebfc"/></g><g><path d="m141.975 45.877v-12.897h-27.95v12.897c9.144-1.26 18.123-1.354 27.95 0z" fill="#e0ebfc"/></g><g><path d="m128 250c-57.099 0-103.552-46.453-103.552-103.552s46.453-103.552 103.552-103.552 103.552 46.454 103.552 103.552-46.453 103.552-103.552 103.552zm0-203.104c-54.893 0-99.552 44.659-99.552 99.552s44.659 99.552 99.552 99.552 99.552-44.659 99.552-99.552-44.659-99.552-99.552-99.552z" fill="#3762cc"/></g><g><path d="m128 228.991c-45.514 0-82.542-37.028-82.542-82.543s37.028-82.543 82.542-82.543c45.515 0 82.543 37.028 82.543 82.543s-37.028 82.543-82.543 82.543zm0-161.086c-43.309 0-78.542 35.234-78.542 78.543s35.233 78.543 78.542 78.543 78.543-35.234 78.543-78.543-35.234-78.543-78.543-78.543z" fill="#3762cc"/></g><g><path d="m148.963 34.98h-41.925c-3.415 0-6.193-2.778-6.193-6.192v-16.596c0-3.414 2.778-6.192 6.193-6.192h41.925c3.414 0 6.192 2.778 6.192 6.192v16.596c0 3.414-2.778 6.192-6.192 6.192zm-41.925-24.98c-1.209 0-2.193.983-2.193 2.192v16.596c0 1.209.984 2.192 2.193 2.192h41.925c1.209 0 2.192-.983 2.192-2.192v-16.596c0-1.209-.983-2.192-2.192-2.192z" fill="#3762cc"/></g><g><path d="m57.284 75.599c-.092 0-.184-.006-.276-.02-.61-.085-1.148-.446-1.456-.98l-8.553-14.813c-.827-1.433-1.047-3.102-.619-4.699.428-1.599 1.453-2.934 2.886-3.761l7.665-4.425c1.432-.826 3.102-1.047 4.699-.619 1.598.428 2.934 1.453 3.761 2.886l7.143 12.371c.523.906.26 2.062-.604 2.651-4.658 3.182-9.117 6.83-13.251 10.844-.377.364-.878.565-1.395.565zm2.74-25.53c-.38 0-.755.101-1.093.295l-7.666 4.426c-.507.292-.87.765-1.021 1.331-.152.565-.074 1.157.219 1.664l7.285 12.618c3.305-3.057 6.79-5.89 10.402-8.456l-6.225-10.78c-.293-.508-.766-.87-1.331-1.021-.188-.051-.38-.077-.57-.077z" fill="#3762cc"/></g><g><path d="m198.716 75.599c-.517 0-1.018-.2-1.394-.565-4.135-4.014-8.593-7.662-13.251-10.844-.864-.59-1.127-1.745-.604-2.651l7.143-12.371c.828-1.433 2.163-2.458 3.762-2.886s3.267-.207 4.698.62l7.665 4.424c1.433.827 2.457 2.162 2.885 3.761.429 1.598.209 3.267-.618 4.699l-8.553 14.813c-.309.534-.846.896-1.457.98-.093.014-.184.02-.276.02zm-10.866-13.652c3.612 2.566 7.098 5.399 10.401 8.456l7.285-12.618c.293-.508.371-1.099.22-1.664-.151-.566-.515-1.039-1.021-1.331l-7.665-4.425c-.507-.293-1.099-.372-1.664-.22-.565.151-1.038.515-1.331 1.021z" fill="#3762cc"/></g><g><path d="m114.025 47.877c-.48 0-.948-.173-1.314-.492-.436-.38-.686-.93-.686-1.508v-12.897c0-1.104.896-2 2-2h27.95c1.104 0 2 .896 2 2v12.896c0 .578-.25 1.128-.686 1.508-.437.38-1.015.553-1.587.474-9.35-1.287-18.057-1.287-27.404 0-.091.013-.182.019-.273.019zm13.974-4.985c3.959 0 7.917.237 11.976.714v-8.626h-23.95v8.625c4.058-.475 8.016-.713 11.974-.713z" fill="#3762cc"/></g><g><path d="m190.48 146.448h.049c-.025-35.052-28.589-62.552-62.529-62.529v62.529h.025l-.025.009v62.529c1.804-.001 3.62-.064 5.451-.224 32.525-2.845 57.1-30.242 57.078-62.305z" fill="#e0ebfc"/></g><g><path d="m66.55 134.13c-2.13-.57-3.4-2.76-2.83-4.9.57-2.13 2.76-3.4 4.9-2.83 2.13.57 3.4 2.76 2.83 4.89v.01c-.48 1.78-2.1 2.97-3.86 2.97-.34 0-.69-.05-1.04-.14zm5.28-15.48c-1.91-1.11-2.56-3.55-1.45-5.46 1.1-1.92 3.55-2.57 5.46-1.46 1.91 1.11 2.57 3.55 1.46 5.46v.01c-.74 1.28-2.09 1.99-3.47 1.99-.68 0-1.37-.17-2-.54zm9.13-13.57c-1.56-1.56-1.56-4.09 0-5.65 1.57-1.56 4.1-1.56 5.66 0 1.56 1.56 1.56 4.1-.01 5.66-.78.78-1.8 1.17-2.82 1.17-1.03 0-2.05-.39-2.83-1.18zm12.31-10.75c-1.11-1.92-.46-4.36 1.45-5.47 1.92-1.11 4.36-.46 5.47 1.45 1.11 1.92.45 4.36-1.46 5.47-.63.37-1.32.54-2 .54-1.38 0-2.72-.71-3.46-1.99zm14.66-7.24c-.58-2.13.69-4.33 2.82-4.9 2.13-.57 4.33.69 4.9 2.82.57 2.14-.69 4.33-2.82 4.91-.35.09-.7.13-1.04.13-1.77 0-3.38-1.17-3.86-2.96z" fill="#e0ebfc"/></g><g><path d="m193.791 140.692c-1.447-16.545-9.021-31.826-21.326-43.027-12.219-11.122-27.993-17.246-44.422-17.246-.015 0-.03 0-.045 0-1.933.001-3.499 1.569-3.498 3.502.001 1.932 1.568 3.498 3.5 3.498.008.003.026 0 .042 0 30.316 0 56.131 23.662 58.776 53.883 1.372 15.685-3.462 30.983-13.611 43.079s-24.377 19.513-40.061 20.885c-15.682 1.376-30.983-3.461-43.08-13.611-11.447-9.605-18.696-22.865-20.604-37.554h6.908c.818 0 1.29-.928.808-1.589l-10.184-13.977c-.399-.548-1.217-.548-1.616 0l-10.184 13.977c-.482.661-.009 1.589.808 1.589h6.418c1.95 16.793 10.109 31.977 23.146 42.917 12.021 10.086 26.87 15.479 42.341 15.478 1.94 0 3.893-.085 5.848-.256 17.547-1.535 33.462-9.831 44.813-23.359 11.353-13.528 16.758-30.642 15.223-48.189z" fill="#6bdddd"/></g><g><path d="m128 155.028c-3.536 0-6.403-2.866-6.403-6.403v-64.421c0-3.537 2.867-6.403 6.403-6.403s6.403 2.866 6.403 6.403v64.421c0 3.536-2.867 6.403-6.403 6.403z" fill="#4671c6"/></g></g></svg>