<svg id="Capa_1" enable-background="new 0 0 512 512" height="512" viewBox="0 0 512 512" width="512" xmlns="http://www.w3.org/2000/svg"><g><g><g><path d="m419.762 108.525-48.214-28.608c-2.894-1.717-3.839-5.441-2.111-8.316l12.519-20.827c1.729-2.876 5.476-3.815 8.37-2.097l48.214 28.608c2.894 1.717 3.839 5.441 2.111 8.316l-12.519 20.827c-1.728 2.875-5.475 3.814-8.37 2.097z" fill="#7a6d79"/><path d="m389.886 138.116 20.962-34.871-30.386-18.036-19.814 32.955z" fill="#e5e1e5"/></g><g><path d="m92.238 108.525 48.214-28.608c2.894-1.717 3.839-5.441 2.111-8.316l-12.519-20.827c-1.729-2.876-5.476-3.815-8.37-2.097l-48.215 28.608c-2.894 1.717-3.839 5.441-2.111 8.316l12.519 20.827c1.729 2.875 5.476 3.814 8.371 2.097z" fill="#7a6d79"/><path d="m122.114 138.116-20.962-34.871 30.386-18.036 19.814 32.955z" fill="#e5e1e5"/></g></g><path d="m231.584 42.452h48.832v63.969h-48.832z" fill="#e5e1e5"/><path d="m256 512c-56.617 0-109.845-21.905-149.878-61.68-40.034-39.776-62.082-92.66-62.082-148.91s22.048-109.134 62.082-148.91c40.034-39.775 93.262-61.68 149.878-61.68 56.618 0 109.845 21.905 149.878 61.68 40.035 39.775 62.082 92.658 62.082 148.91 0 56.251-22.048 109.134-62.081 148.91-40.035 39.775-93.262 61.68-149.879 61.68z" fill="#7a6d79"/><path d="m256 475.613c-46.834 0-90.864-18.12-123.981-51.022-33.116-32.904-51.355-76.651-51.355-123.181s18.238-90.277 51.355-123.181c33.117-32.902 77.147-51.022 123.981-51.022s90.865 18.12 123.981 51.022c33.117 32.904 51.355 76.649 51.355 123.181 0 46.53-18.238 90.277-51.355 123.181-33.116 32.902-77.148 51.022-123.981 51.022z" fill="#f9f7f8"/><g fill="#7a6d79"><path d="m201.547 227.697c-24.507 0-44.444 19.854-44.444 44.258s19.937 44.259 44.444 44.259c6.612 0 12.885-1.456 18.53-4.046-12.616 27.246-31.719 41.827-31.993 42.032-3.417 2.541-4.135 7.371-1.601 10.797 1.516 2.047 3.851 3.13 6.217 3.13 1.597 0 3.208-.493 4.59-1.516 1.69-1.251 41.284-31.165 48.144-87.679.363-2.273.557-4.602.557-6.976 0-24.405-19.938-44.259-44.444-44.259zm0 73.064c-15.986 0-28.991-12.923-28.991-28.806s13.005-28.805 28.991-28.805 28.991 12.922 28.991 28.805c0 1.415-.108 2.804-.307 4.165-.013.085-.032.167-.042.253-.007.06-.017.117-.024.177-2.221 13.706-14.206 24.211-28.618 24.211z"/><path d="m310.454 228.185c-24.507 0-44.444 19.854-44.444 44.258v58.424c0 24.403 19.938 44.258 44.444 44.258 24.507 0 44.444-19.854 44.444-44.258v-58.424c0-24.404-19.938-44.258-44.444-44.258zm28.991 102.681c0 15.883-13.006 28.805-28.991 28.805-15.986 0-28.991-12.922-28.991-28.805v-58.424c0-15.883 13.006-28.805 28.991-28.805 15.986 0 28.991 12.922 28.991 28.805z"/></g><path d="m379.981 178.229c-17.671-17.556-38.449-30.9-61.102-39.531 10.802 6.82 20.927 14.869 30.197 24.079 33.117 32.904 51.355 76.649 51.355 123.181 0 46.53-18.238 90.277-51.355 123.181-33.117 32.902-77.148 51.022-123.981 51.022-21.844 0-43.077-3.945-62.879-11.491 27.789 17.545 60.059 26.943 93.784 26.943 46.833 0 90.865-18.12 123.981-51.022 33.117-32.904 51.355-76.651 51.355-123.181 0-46.531-18.238-90.277-51.355-123.181z" fill="#e5e1e5"/><path d="m296.326 42.452h-80.653c-6.721 0-12.169-5.448-12.169-12.169v-18.114c.001-6.721 5.449-12.169 12.17-12.169h80.653c6.721 0 12.169 5.448 12.169 12.169v18.115c-.001 6.72-5.449 12.168-12.17 12.168z" fill="#7a6d79"/><g><path d="m256 158.202c-4.267 0-7.726-3.459-7.726-7.726v-22.147c0-4.267 3.459-7.726 7.726-7.726s7.726 3.459 7.726 7.726v22.147c0 4.266-3.459 7.726-7.726 7.726z" fill="#7a6d79"/></g><g><path d="m256 482.949c-4.267 0-7.726-3.459-7.726-7.726v-22.877c0-4.268 3.459-7.726 7.726-7.726s7.726 3.459 7.726 7.726v22.877c0 4.267-3.459 7.726-7.726 7.726z" fill="#7a6d79"/></g><g><path d="m104.082 309.137h-22.658c-4.267 0-7.726-3.459-7.726-7.726s3.459-7.726 7.726-7.726h22.658c4.267 0 7.726 3.459 7.726 7.726s-3.458 7.726-7.726 7.726z" fill="#7a6d79"/></g><g><path d="m430.576 309.137h-22.658c-4.267 0-7.726-3.459-7.726-7.726s3.459-7.726 7.726-7.726h22.658c4.267 0 7.726 3.459 7.726 7.726s-3.459 7.726-7.726 7.726z" fill="#7a6d79"/></g><path d="m405.878 152.501c-20.483-20.351-44.425-36.01-70.503-46.464 14.219 8.639 27.513 19.005 39.597 31.011 40.035 39.775 62.082 92.658 62.082 148.91 0 56.251-22.048 109.134-62.081 148.91-40.035 39.775-93.262 61.68-149.879 61.68-27.649 0-54.485-5.238-79.376-15.216 32.887 19.979 70.756 30.668 110.282 30.668 56.617 0 109.844-21.905 149.879-61.68 40.034-39.776 62.081-92.659 62.081-148.91 0-56.252-22.047-109.135-62.082-148.909z" fill="#685e68"/></g></svg>