<svg id="Capa_1" enable-background="new 0 0 512.001 512.001" height="512" viewBox="0 0 512.001 512.001" width="512" xmlns="http://www.w3.org/2000/svg"><g><g><path d="m12.524 408.596c-4.127 0-7.481-3.337-7.499-7.469-.018-4.142 3.326-7.514 7.469-7.531.78-.003 79.123-.438 171.328-9.575 121.352-12.026 211.471-33.55 260.616-62.245 30.602-17.868 47.455-41.228 47.455-65.775s-16.854-47.907-47.455-65.775c-49.146-28.695-139.265-50.219-260.616-62.245-92.205-9.138-170.548-9.572-171.328-9.575-4.143-.018-7.486-3.39-7.469-7.531.018-4.132 3.372-7.469 7.499-7.469h.032c.787.003 79.729.438 172.617 9.636 125.312 12.41 215.087 34.021 266.827 64.231 35.398 20.668 54.893 48.628 54.893 78.729s-19.494 58.061-54.893 78.729c-51.74 30.211-141.515 51.821-266.827 64.231-92.889 9.198-171.83 9.633-172.617 9.636-.011-.002-.021-.002-.032-.002z" fill="#9ea2a3"/></g><g><path d="m442.664 126.948c-18.556-17.004-40.79-30.055-65.372-37.828h-105.633c-24.582 7.773-46.815 20.825-65.372 37.828l-52.718 91.31c-2.673 12.157-4.094 24.783-4.094 37.742s1.421 25.585 4.094 37.742l52.718 91.31c18.556 17.004 40.79 30.055 65.372 37.828h105.633c24.582-7.773 46.815-20.825 65.372-37.828l52.718-91.31c2.673-12.157 4.094-24.783 4.094-37.742s-1.421-25.585-4.094-37.742z" fill="#efedee"/></g><g><path d="m206.275 126.97-52.718 91.31c-2.67 12.149-4.081 24.769-4.081 37.72 0 12.96 1.421 25.585 4.094 37.742l52.718 91.31c18.556 17.004 40.79 30.055 65.372 37.828h105.634v.004c24.586-7.776 46.822-20.837 65.38-37.848l16.135-27.946c-23.854 12.189-50.869 19.073-79.496 19.073-96.65 0-175-78.35-175-175 0-34.284 9.868-66.26 26.905-93.259-8.888 5.609-17.232 11.999-24.943 19.066z" fill="#d4d4d5"/></g><g><path d="m278.701 221.44 38.732-22.362c4.358-2.516 9.727-2.516 14.085 0l38.732 22.362c4.358 2.516 7.042 7.166 7.042 12.198v44.724c0 5.032-2.685 9.682-7.042 12.198l-38.732 22.362c-4.358 2.516-9.727 2.516-14.085 0l-38.732-22.362c-4.358-2.516-7.042-7.166-7.042-12.198v-44.724c0-5.032 2.684-9.682 7.042-12.198z" fill="#676f72"/></g><g><path d="m324.476 81c-18.409 0-36.151 2.85-52.817 8.12v14.242c0 5.032 2.685 9.682 7.042 12.197l38.732 22.362c4.358 2.516 9.727 2.516 14.085 0l38.732-22.362c4.358-2.516 7.042-7.166 7.042-12.197v-14.242c-16.666-5.27-34.407-8.12-52.816-8.12z" fill="#676f72"/></g><g><path d="m370.25 396.44-38.732-22.362c-4.358-2.516-9.727-2.516-14.085 0l-38.732 22.362c-4.358 2.516-7.042 7.166-7.042 12.197v14.242c16.666 5.27 34.408 8.12 52.817 8.12s36.151-2.85 52.817-8.12v-14.242c0-5.031-2.685-9.681-7.043-12.197z" fill="#4c5659"/></g><g><path d="m153.559 218.309 12.32 7.113c4.358 2.516 9.727 2.516 14.085 0l38.732-22.362c4.358-2.516 7.042-7.166 7.042-12.197v-44.724c0-5.032-2.685-9.682-7.042-12.197l-12.295-7.098c-26.13 23.899-44.974 55.624-52.842 91.465z" fill="#676f72"/></g><g><path d="m483.072 286.578c-4.358-2.516-9.727-2.516-14.085 0l-38.732 22.362c-4.358 2.516-7.042 7.166-7.042 12.197v44.724c0 5.032 2.684 9.682 7.042 12.197l12.295 7.098c26.13-23.901 44.975-55.626 52.843-91.467z" fill="#676f72"/></g><g><path d="m218.696 308.94-38.732-22.362c-4.358-2.516-9.727-2.516-14.085 0l-12.32 7.113c7.868 35.84 26.713 67.566 52.843 91.467l12.295-7.098c4.358-2.516 7.042-7.166 7.042-12.197v-44.724c-.001-5.033-2.685-9.683-7.043-12.199z" fill="#4c5659"/></g><g><path d="m442.55 126.842-12.295 7.098c-4.358 2.516-7.042 7.166-7.042 12.197v44.724c0 5.032 2.684 9.682 7.042 12.197l38.732 22.362c4.358 2.516 9.727 2.516 14.085 0l12.32-7.113c-7.867-35.839-26.712-67.564-52.842-91.465z" fill="#676f72"/></g><g><path d="m423.966 370.406c1.085 3.181 3.291 5.923 6.289 7.654l12.295 7.098c11.531-10.548 21.641-22.621 30.017-35.897-14.843 9.366-31.19 16.563-48.601 21.145z" fill="#4c5659"/></g><g><path d="m204.312 201.164c0-23.999 4.835-46.867 13.577-67.689l-11.488-6.632c-26.13 23.901-44.975 55.626-52.843 91.467l12.32 7.113c4.358 2.516 9.727 2.516 14.085 0l24.641-14.227c-.187-3.321-.292-6.664-.292-10.032z" fill="#4c5659"/></g><path d="m13.368.006c-4.175-.283-7.799 2.825-8.173 6.799-.349 3.71 2.223 7.249 6.03 8.083 34.515 3.382 89.819 19.794 153.996 51.001 97.417 47.371 148.373 108.778 151.589 182.612h-304.285c-4.143 0-7.5 3.357-7.5 7.5s3.357 7.5 7.5 7.5h304.286c-3.214 73.761-54.078 135.123-151.315 182.479-76.161 37.091-153.499 50.999-154.271 51.135-4.285 1.168-6.76 5.411-5.847 9.19.748 3.098 3.676 5.48 7.202 5.694 70.971-1.515 129.841-9.207 173.11-16.546 54.819-9.298 103.739-21.919 145.402-37.513 52.534-19.664 93.727-44.188 122.432-72.894 34.146-34.146 53.061-79.529 53.356-127.899.057-.374.096-.755.096-1.147s-.039-.773-.097-1.149c-.295-48.37-19.211-93.753-53.356-127.899-28.705-28.705-69.897-53.229-122.432-72.894-41.663-15.594-90.583-28.215-145.402-37.513-43.269-7.339-102.139-15.03-173.11-16.545m268.72 130.462c-26.522-29.358-63.37-55.623-109.52-78.063-29.377-14.285-58.563-25.143-83.712-33.162 27.4 2.41 60.249 6.186 95.112 12.098 120.941 20.511 210.756 57.243 259.737 106.225 29.814 29.813 46.976 68.968 48.806 110.94h-159.907c-1.757-43.166-18.722-82.845-50.516-118.038zm161.617 243.978c-48.95 48.951-138.69 85.67-259.519 106.188-34.926 5.931-67.855 9.716-95.318 12.132 25.146-8.018 54.328-18.875 83.701-33.158 46.149-22.44 82.997-48.705 109.52-78.063 31.793-35.193 48.759-74.872 50.515-118.038h159.907c-1.831 41.972-18.992 81.126-48.806 110.939z" fill="#d4d4d5"/></g></svg>