<svg id="Capa_1" enable-background="new 0 0 512 512" height="512" viewBox="0 0 512 512" width="512" xmlns="http://www.w3.org/2000/svg"><g><g><path d="m454.5 504.5h-397c-27.614 0-50-22.386-50-50v-167h497v167c0 27.614-22.386 50-50 50z" fill="#5fd9b3"/></g><g><path d="m96 454.5v-167h-88.5v167c0 27.614 22.386 50 50 50h88.5c-27.614 0-50-22.386-50-50z" fill="#00ce8e"/></g><g><path d="m7.5 87.5v280c0 11.046 8.954 20 20 20 11.046 0 20-8.954 20-20v-280c0-22.091 17.909-40 40-40h337c22.091 0 40 17.909 40 40v280c0 11.046 8.954 20 20 20 11.046 0 20-8.954 20-20v-280c0-44.183-35.817-80-80-80h-337c-44.183 0-80 35.817-80 80z" fill="#efedee"/></g><g><path d="m342.784 281.239c-13.626-12.486-29.951-22.069-48.002-27.777h-77.565c-18.05 5.708-34.376 15.291-48.002 27.777l-38.71 67.048c-1.962 8.927-3.006 18.197-3.006 27.713s1.044 18.787 3.006 27.713l38.71 67.048c13.626 12.485 29.951 22.069 48.002 27.777h77.565c18.05-5.708 34.376-15.291 48.002-27.777l38.71-67.048c1.962-8.927 3.006-18.197 3.006-27.713s-1.044-18.787-3.006-27.713z" fill="#efedee"/></g><g><path d="m169.207 281.255-38.71 67.048c-1.96 8.921-2.997 18.187-2.997 27.697 0 9.516 1.044 18.787 3.006 27.713l38.71 67.047c13.626 12.485 29.951 22.069 48.002 27.777h77.565v.003c18.054-5.71 34.381-15.3 48.008-27.791l11.847-20.52c-17.516 8.95-37.352 14.005-58.373 14.005-70.969 0-128.5-57.531-128.5-128.5 0-25.175 7.246-48.654 19.756-68.478-6.525 4.118-12.652 8.81-18.314 13.999z" fill="#d4d4d5"/></g><g><path d="m222.388 350.623 28.441-16.42c3.2-1.847 7.142-1.847 10.342 0l28.441 16.42c3.2 1.847 5.171 5.262 5.171 8.956v32.84c0 3.695-1.971 7.109-5.171 8.956l-28.441 16.42c-3.2 1.847-7.142 1.847-10.342 0l-28.441-16.42c-3.2-1.847-5.171-5.262-5.171-8.956v-32.84c0-3.694 1.971-7.108 5.171-8.956z" fill="#676f72"/></g><g><path d="m256 247.5c-13.517 0-26.545 2.093-38.783 5.962v10.458c0 3.695 1.971 7.109 5.171 8.956l28.441 16.42c3.2 1.847 7.142 1.847 10.342 0l28.441-16.42c3.2-1.847 5.171-5.262 5.171-8.956v-10.458c-12.238-3.869-25.266-5.962-38.783-5.962z" fill="#676f72"/></g><g><path d="m289.612 479.123-28.441-16.42c-3.2-1.847-7.142-1.847-10.342 0l-28.441 16.42c-3.2 1.847-5.171 5.262-5.171 8.956v10.458c12.238 3.87 25.265 5.962 38.783 5.962s26.545-2.093 38.783-5.962v-10.457c0-3.695-1.971-7.109-5.171-8.957z" fill="#4c5659"/></g><g><path d="m130.498 348.324 9.047 5.223c3.2 1.847 7.142 1.847 10.342 0l28.441-16.42c3.2-1.847 5.171-5.262 5.171-8.956v-32.84c0-3.695-1.971-7.109-5.171-8.956l-9.028-5.212c-19.187 17.548-33.025 40.844-38.802 67.161z" fill="#676f72"/></g><g><path d="m372.455 398.453c-3.2-1.847-7.142-1.847-10.342 0l-28.441 16.42c-3.2 1.847-5.171 5.262-5.171 8.956v32.84c0 3.695 1.971 7.109 5.171 8.956l9.028 5.212c19.187-17.55 33.024-40.846 38.802-67.163z" fill="#676f72"/></g><g><path d="m178.327 414.873-28.441-16.42c-3.2-1.847-7.142-1.847-10.342 0l-9.047 5.223c5.777 26.317 19.615 49.613 38.802 67.163l9.028-5.212c3.2-1.847 5.171-5.262 5.171-8.956v-32.84c0-3.696-1.971-7.11-5.171-8.958z" fill="#4c5659"/></g><g><path d="m342.7 281.161-9.028 5.212c-3.2 1.847-5.171 5.262-5.171 8.956v32.84c0 3.695 1.971 7.109 5.171 8.956l28.441 16.42c3.2 1.847 7.142 1.847 10.342 0l9.047-5.223c-5.777-26.315-19.615-49.611-38.802-67.161z" fill="#676f72"/></g><g><path d="m329.055 460.007c.796 2.336 2.416 4.349 4.618 5.62l9.028 5.212c8.467-7.745 15.891-16.61 22.041-26.359-10.9 6.878-22.903 12.162-35.687 15.527z" fill="#4c5659"/></g><g><path d="m167.765 335.735c0-17.622 3.55-34.414 9.97-49.703l-8.435-4.87c-19.187 17.55-33.024 40.846-38.802 67.163l9.047 5.223c3.2 1.847 7.142 1.847 10.342 0l18.093-10.446c-.138-2.44-.215-4.894-.215-7.367z" fill="#4c5659"/></g><g><path d="m216 7.5h-128.5c-44.183 0-80 35.817-80 80v280c0 11.046 8.954 20 20 20s20-8.954 20-20v-280c0-22.091 17.909-40 40-40h128.5c-11.046 0-20-8.954-20-20s8.954-20 20-20z" fill="#d4d4d5"/></g><g><path d="m293.362 344.128-28.44-16.42c-5.417-3.128-12.426-3.128-17.842 0l-28.44 16.42c-5.503 3.176-8.921 9.097-8.921 15.451v32.841c0 6.354 3.418 12.275 8.921 15.451l28.44 16.42c2.708 1.564 5.793 2.391 8.921 2.391s6.213-.827 8.921-2.391l28.44-16.42c5.503-3.176 8.921-9.097 8.921-15.451v-32.84c0-6.354-3.419-12.275-8.921-15.452zm-6.079 48.292c0 1.012-.544 1.955-1.421 2.461l-28.441 16.42c-.862.498-1.978.498-2.841 0l-28.441-16.42c-.876-.506-1.42-1.449-1.42-2.461v-32.84c0-1.012.544-1.955 1.421-2.461l28.441-16.42c.431-.249.922-.381 1.42-.381s.989.132 1.421.381l28.441 16.42c.876.506 1.42 1.449 1.42 2.461z"/><path d="m424.5 0h-337c-48.248 0-87.5 39.252-87.5 87.5v367c0 31.706 25.794 57.5 57.5 57.5h397c31.706 0 57.5-25.794 57.5-57.5v-367c0-48.248-39.252-87.5-87.5-87.5zm-409.5 87.5c0-39.977 32.523-72.5 72.5-72.5h337c39.977 0 72.5 32.523 72.5 72.5v280c0 6.893-5.607 12.5-12.5 12.5s-12.5-5.607-12.5-12.5v-280c0-26.191-21.309-47.5-47.5-47.5h-337c-26.191 0-47.5 21.309-47.5 47.5v280c0 6.893-5.607 12.5-12.5 12.5s-12.5-5.607-12.5-12.5zm314.922 256.122 28.44 16.42c2.752 1.589 5.836 2.383 8.921 2.383 3.001 0 6-.758 8.694-2.262.679 5.215 1.023 10.498 1.023 15.837 0 5.365-.356 10.647-1.036 15.829-5.461-3.041-12.177-3.002-17.601.129l-28.44 16.42c-5.503 3.176-8.921 9.097-8.921 15.451v32.841c0 6.241 3.303 12.058 8.635 15.273-8.334 6.411-17.522 11.763-27.363 15.852-.1-6.246-3.491-12.039-8.911-15.167l-28.44-16.42c-5.503-3.177-12.339-3.176-17.842 0l-28.44 16.42c-5.421 3.129-8.811 8.922-8.912 15.167-9.842-4.089-19.029-9.441-27.364-15.852 5.332-3.215 8.635-9.032 8.635-15.273v-32.84c0-6.354-3.418-12.275-8.921-15.451l-28.44-16.42c-5.424-3.131-12.141-3.169-17.602-.128-.681-5.183-1.037-10.466-1.037-15.831s.356-10.647 1.036-15.829c2.691 1.499 5.684 2.254 8.68 2.254 3.084 0 6.17-.794 8.921-2.383l28.44-16.42c5.503-3.177 8.921-9.098 8.921-15.452v-32.84c0-6.241-3.303-12.058-8.635-15.273 8.334-6.411 17.522-11.763 27.363-15.852.1 6.246 3.491 12.039 8.911 15.167l28.44 16.42c2.752 1.589 5.836 2.383 8.921 2.383 3.084 0 6.17-.794 8.921-2.383l28.44-16.42c5.448-3.145 8.847-8.98 8.915-15.262 9.793 4.04 19.021 9.366 27.463 15.882-5.393 3.202-8.738 9.055-8.738 15.337v32.841c.002 6.354 3.421 12.275 8.923 15.452zm11.612 117.883-4.112-2.374c-.876-.506-1.42-1.449-1.42-2.461v-32.84c0-1.012.544-1.955 1.421-2.461l28.441-16.42c.876-.506 1.964-.506 2.841 0l4.167 2.406c-5.579 20.774-16.555 39.363-31.338 54.15zm-116.817 31.386v-4.812c0-1.012.544-1.955 1.421-2.461l28.441-16.42c.876-.506 1.964-.506 2.841 0l28.441 16.42c.876.506 1.42 1.449 1.42 2.461v4.812c-9.981 2.675-20.466 4.109-31.281 4.109s-21.3-1.434-31.283-4.109zm-65.467-212.891h-55.75v-65h65v56.975c-3.036 2.558-5.963 5.24-8.764 8.049-.162-.01-.322-.024-.486-.024zm104.25-39.793v-25.207h65v45.836c-19.319-12.204-41.556-19.368-65-20.629zm-87.5-64.411c-4.142 0-7.5 3.358-7.5 7.5v16.704h-65v-65h65v18.296c0 4.142 3.358 7.5 7.5 7.5s7.5-3.358 7.5-7.5v-18.296h65v65h-65v-16.704c0-4.142-3.358-7.5-7.5-7.5zm-121-40.796h33.5v65h-33.5zm193.5 80v25.21c-23.798 1.3-45.985 8.748-65 20.777v-45.987zm-23.783 44.109c9.983-2.675 20.468-4.109 31.283-4.109 10.73 0 21.225 1.384 31.283 4.048v4.873c0 1.012-.544 1.955-1.421 2.461l-28.441 16.42c-.876.506-1.964.506-2.841 0l-28.441-16.42c-.876-.506-1.42-1.449-1.42-2.461v-4.812zm38.783-59.109v-65h65v65zm80-65h65v65h-65zm80 0h33.5v65h-33.5zm33.5-15h-33.5v-65h1c17.92 0 32.5 14.58 32.5 32.5zm-48.5 0h-65v-65h65zm-80 0h-65v-65h65zm-80 0h-65v-65h65zm-80 0h-65v-65h65zm-80 0h-33.5v-32.5c0-17.92 14.58-32.5 32.5-32.5h1zm-33.5 95h33.5v65h-33.5zm115.466 75.495 4.112 2.374c.876.506 1.42 1.449 1.42 2.461v32.841c0 1.012-.544 1.955-1.421 2.461l-28.441 16.42c-.876.506-1.964.506-2.841 0l-4.167-2.406c5.579-20.775 16.555-39.364 31.338-54.151zm5.533 166.175c0 1.012-.544 1.955-1.421 2.461l-4.112 2.374c-14.783-14.788-25.759-33.376-31.338-54.151l4.168-2.406c.876-.506 1.964-.506 2.841 0l28.441 16.42c.876.506 1.42 1.449 1.42 2.461v32.841zm177.251-176.67c-.288 0-.571.02-.85.051-2.858-2.884-5.827-5.626-8.9-8.221v-56.83h65v65zm70.25-65h33.5v65h-33.5zm-366 282c-23.435 0-42.5-19.065-42.5-42.5v-62.518c3.753 1.924 8 3.018 12.5 3.018 15.164 0 27.5-12.336 27.5-27.5v-72.5h91.821c-16.842 22.642-26.821 50.677-26.821 81 0 52.652 30.077 98.41 73.951 121zm397 0h-136.451c43.874-22.59 73.951-68.348 73.951-121 0-18.904-3.807-37.204-11.315-54.393-1.658-3.795-6.078-5.528-9.875-3.871-3.795 1.658-5.528 6.08-3.871 9.875 2.424 5.548 4.408 11.229 5.959 17.019l-4.194 2.421c-.876.506-1.964.506-2.841 0l-28.441-16.42c-.876-.506-1.42-1.449-1.42-2.461v-32.84c0-1.012.544-1.955 1.421-2.461l4.172-2.409c3.75 3.769 7.291 7.802 10.583 12.106 2.517 3.29 7.222 3.917 10.514 1.401 2.803-2.143 3.665-5.874 2.306-8.967h92.002v72.5c0 15.164 12.336 27.5 27.5 27.5 4.5 0 8.747-1.093 12.5-3.018v62.518c0 23.435-19.065 42.5-42.5 42.5z"/></g></g></svg>