<svg height="511pt" viewBox="-68 1 511 511.99998" width="511pt" xmlns="http://www.w3.org/2000/svg"><path d="m9.035156 512h358.398438c4.710937 0 8.535156-3.820312 8.535156-8.535156v-494.929688c0-4.714844-3.824219-8.535156-8.535156-8.535156h-358.398438c-4.714844 0-8.535156 3.820312-8.535156 8.535156v494.933594c0 4.710938 3.820312 8.53125 8.535156 8.53125zm221.863282-17.066406h-85.332032v-25.601563h18.636719c4.625 13.273438 19.128906 20.28125 32.402344 15.660157 7.335937-2.554688 13.101562-8.324219 15.65625-15.660157h18.636719zm-51.199219-34.132813c0-4.714843 3.820312-8.535156 8.535156-8.535156 4.710937 0 8.53125 3.820313 8.53125 8.535156 0 4.710938-3.820313 8.53125-8.53125 8.53125-4.714844 0-8.535156-3.820312-8.535156-8.53125zm85.335937 34.132813h-17.066406v-34.132813c0-4.714843-3.824219-8.535156-8.535156-8.535156h-27.171875c-4.621094-13.269531-19.128907-20.28125-32.398438-15.65625-7.335937 2.554687-13.105469 8.320313-15.660156 15.65625h-27.167969c-4.714844 0-8.535156 3.820313-8.535156 8.535156v34.132813h-17.066406v-59.734375h153.601562zm-76.800781-76.800782c8.507813-.003906 16.457031-4.234374 21.214844-11.289062 5.019531 2.859375 9.414062 6.695312 12.917969 11.289062h-68.265626c3.5-4.585937 7.882813-8.425781 12.890626-11.289062 4.761718 7.0625 12.722656 11.292969 21.242187 11.289062zm-8.535156-25.597656c0-4.714844 3.820312-8.535156 8.535156-8.535156 4.710937 0 8.53125 3.820312 8.53125 8.535156 0 4.710938-3.820313 8.53125-8.53125 8.53125-4.714844 0-8.535156-3.820312-8.535156-8.53125zm-34.132813-375.46875h85.332032v17.066406h-85.332032zm-34.132812 0h17.066406v25.601563c0 4.710937 3.820312 8.53125 8.535156 8.53125h102.398438c4.710937 0 8.535156-3.820313 8.535156-8.53125v-25.601563h17.066406v51.199219h-153.601562zm110.933594 68.265625c-14.140626 18.851563-40.882813 22.671875-59.734376 8.535157-3.234374-2.425782-6.105468-5.300782-8.53125-8.535157zm-204.800782-68.265625h76.800782v59.734375c0 4.710938 3.820312 8.53125 8.53125 8.53125h31.574218c13.992188 29.714844 49.421875 42.460938 79.136719 28.46875 12.511719-5.890625 22.578125-15.957031 28.46875-28.46875h31.488281c4.714844 0 8.535156-3.820312 8.535156-8.53125v-59.734375h76.796876v230.398438h-52.769532c-4.621094-13.269532-19.128906-20.28125-32.402344-15.65625-7.335937 2.554687-13.101562 8.320312-15.65625 15.65625h-20.285156c-4.113281-27.9375-30.101562-47.246094-58.039062-43.128906-22.316406 3.285156-39.84375 20.8125-43.128906 43.128906h-18.222657c-4.621093-13.269532-19.128906-20.28125-32.398437-15.65625-7.335938 2.554687-13.105469 8.320312-15.660156 15.65625h-52.769532zm273.066406 238.933594c0 4.710938-3.820312 8.535156-8.53125 8.535156-4.714843 0-8.535156-3.820312-8.535156-8.535156s3.820313-8.535156 8.535156-8.535156c4.710938 0 8.53125 3.824218 8.53125 8.535156zm-136.675781-8.53125c4.097657-18.363281 22.308594-29.921875 40.667969-25.820312 12.882812 2.875 22.945312 12.9375 25.820312 25.820312zm65.851563 17.066406c-5.164063 18-23.945313 28.410156-41.949219 23.246094-11.238281-3.222656-20.023437-12.007812-23.246094-23.246094zm-116.910156-8.535156c0 4.710938-3.820313 8.535156-8.53125 8.535156-4.714844 0-8.535157-3.820312-8.535157-8.535156s3.820313-8.535156 8.535157-8.535156c4.710937.003906 8.53125 3.824218 8.53125 8.535156zm-85.332032 8.535156h52.769532c4.625 13.269532 19.132812 20.28125 32.402343 15.65625 7.335938-2.554687 13.101563-8.320312 15.65625-15.65625h18.535157c5.367187 27.761719 32.222656 45.917969 59.984374 40.554688 20.53125-3.96875 36.589844-20.023438 40.554688-40.554688h20.601562c4.621094 13.269532 19.128907 20.28125 32.402344 15.65625 7.335938-2.554687 13.101563-8.320312 15.65625-15.65625h52.769532v230.398438h-76.800782v-68.265625c0-4.714844-3.820312-8.535157-8.53125-8.535157h-31.394531c-5.980469-12.507812-16.089844-22.574218-28.628906-28.492187-1.542969-13.976563-14.125-24.058594-28.101563-22.515625-11.851562 1.304688-21.210937 10.664062-22.519531 22.515625-12.535156 5.921875-22.644531 15.984375-28.628906 28.492187h-31.394531c-4.710938 0-8.53125 3.820313-8.53125 8.535157v68.265625h-76.800782zm0 0"/><path d="m111.433594 153.601562c14.136718 0 25.601562-11.460937 25.601562-25.601562s-11.464844-25.601562-25.601562-25.601562c-14.140625 0-25.601563 11.460937-25.601563 25.601562s11.464844 25.601562 25.601563 25.601562zm0-34.136718c4.710937 0 8.535156 3.820312 8.535156 8.535156s-3.824219 8.535156-8.535156 8.535156c-4.714844 0-8.535156-3.820312-8.535156-8.535156s3.820312-8.535156 8.535156-8.535156zm0 0"/><path d="m265.035156 153.601562c14.136719 0 25.597656-11.460937 25.597656-25.601562s-11.460937-25.601562-25.597656-25.601562c-14.140625 0-25.601562 11.460937-25.601562 25.601562s11.460937 25.601562 25.601562 25.601562zm0-34.136718c4.710938 0 8.53125 3.820312 8.53125 8.535156s-3.820312 8.535156-8.53125 8.535156c-4.714844 0-8.535156-3.820312-8.535156-8.535156s3.820312-8.535156 8.535156-8.535156zm0 0"/><path d="m256.5 384c14.136719 0 25.601562-11.460938 25.601562-25.601562 0-14.136719-11.460937-25.597657-25.601562-25.597657-14.136719 0-25.601562 11.460938-25.601562 25.597657 0 14.140624 11.464843 25.601562 25.601562 25.601562zm0-34.132812c4.710938 0 8.535156 3.820312 8.535156 8.53125 0 4.714843-3.820312 8.535156-8.535156 8.535156-4.710938 0-8.535156-3.820313-8.535156-8.535156 0-4.710938 3.824218-8.53125 8.535156-8.53125zm0 0"/><path d="m119.96875 384c14.136719 0 25.597656-11.460938 25.597656-25.601562 0-14.136719-11.460937-25.597657-25.597656-25.597657-14.140625 0-25.601562 11.460938-25.601562 25.597657 0 14.140624 11.460937 25.601562 25.601562 25.601562zm0-34.132812c4.710938 0 8.53125 3.820312 8.53125 8.53125 0 4.714843-3.820312 8.535156-8.53125 8.535156-4.714844 0-8.535156-3.820313-8.535156-8.535156 0-4.710938 3.820312-8.53125 8.535156-8.53125zm0 0"/><path d="m188.234375 187.734375c14.136719 0 25.597656-11.460937 25.597656-25.601563 0-14.136718-11.460937-25.601562-25.597656-25.601562-14.140625 0-25.601563 11.464844-25.601563 25.601562 0 14.140626 11.460938 25.601563 25.601563 25.601563zm0-34.132813c4.710937 0 8.53125 3.820313 8.53125 8.53125 0 4.714844-3.820313 8.535157-8.53125 8.535157-4.714844 0-8.535156-3.820313-8.535156-8.535157 0-4.710937 3.820312-8.53125 8.535156-8.53125zm0 0"/><path d="m60.234375 375.46875c-14.140625 0-25.601563 11.460938-25.601563 25.597656 0 14.140625 11.460938 25.601563 25.601563 25.601563 14.136719 0 25.597656-11.460938 25.597656-25.601563 0-14.136718-11.460937-25.597656-25.597656-25.597656zm0 34.132812c-4.714844 0-8.535156-3.820312-8.535156-8.535156 0-4.710937 3.820312-8.535156 8.535156-8.535156 4.710937 0 8.53125 3.824219 8.53125 8.535156 0 4.714844-3.820313 8.535156-8.53125 8.535156zm0 0"/><path d="m316.234375 426.667969c14.136719 0 25.597656-11.460938 25.597656-25.601563 0-14.136718-11.460937-25.601562-25.597656-25.601562-14.140625 0-25.601563 11.464844-25.601563 25.601562 0 14.140625 11.460938 25.601563 25.601563 25.601563zm0-34.132813c4.710937 0 8.53125 3.820313 8.53125 8.53125 0 4.714844-3.820313 8.535156-8.53125 8.535156-4.714844 0-8.535156-3.820312-8.535156-8.535156 0-4.710937 3.820312-8.53125 8.535156-8.53125zm0 0"/><path d="m305.199219 330.300781 2.5-2.5v22.066407c0 4.710937 3.820312 8.53125 8.535156 8.53125 4.710937 0 8.53125-3.820313 8.53125-8.53125v-22.066407l2.503906 2.5c3.386719 3.273438 8.789063 3.179688 12.0625-.210937 3.195313-3.304688 3.195313-8.550782 0-11.855469l-17.066406-17.066406c-3.332031-3.332031-8.730469-3.332031-12.066406 0l-17.066407 17.066406c-3.273437 3.390625-3.179687 8.789063.210938 12.066406 3.304688 3.191407 8.550781 3.191407 11.855469 0zm0 0"/><path d="m66.273438 301.175781c-.792969-.796875-1.738282-1.425781-2.78125-1.851562-2.085938-.863281-4.429688-.863281-6.519532 0-1.039062.425781-1.988281 1.054687-2.78125 1.851562l-17.066406 17.066407c-3.273438 3.390624-3.179688 8.792968.210938 12.066406 3.304687 3.195312 8.546874 3.195312 11.855468 0l2.507813-2.507813v13.53125c0 4.714844 3.820312 8.535157 8.535156 8.535157 4.710937 0 8.53125-3.820313 8.53125-8.535157v-13.53125l2.5 2.5c3.390625 3.273438 8.792969 3.179688 12.066406-.210937 3.195313-3.304688 3.195313-8.550782 0-11.855469zm0 0"/></svg>