<svg id="Layer_1" enable-background="new 0 0 256 256" height="512" viewBox="0 0 256 256" width="512" xmlns="http://www.w3.org/2000/svg"><g><g><path d="m96.18 88.212h-67.86-18.729c-.879 0-1.591.713-1.591 1.592v26.026c0 .879.712 1.591 1.591 1.591h18.729v48.798c0 .866.702 1.568 1.568 1.568h64.724c.866 0 1.568-.702 1.568-1.568v-48.798h18.728c.879 0 1.591-.712 1.591-1.591v-26.026c0-.879-.712-1.591-1.591-1.591h-18.728z" fill="#6bdddd"/></g><g><path d="m12.94 88.213h3.978v29.209h-3.978z" fill="#e0ebfc"/></g><g><path d="m107.582 88.213h3.978v29.209h-3.978z" fill="#e0ebfc"/></g><g><path d="m85.197 88.212h-45.894l18.348 19.178c2.506 2.62 6.691 2.62 9.198 0z" fill="#e0ebfc"/></g><g><path d="m62.25 88.212h-17.281l14.981 15.659c1.253 1.31 3.346 1.31 4.599 0l14.981-15.659z" fill="#4671c6"/></g><g><path d="m82.457 113.829h-6.316c-.745 0-1.349.604-1.349 1.349v11.652c0 .498.274.955.713 1.19l6.316 3.376c.199.106.417.159.636.159z" fill="#e0ebfc"/></g><g><path d="m83.093 131.396 6.316-3.376c.439-.235.713-.692.713-1.19v-11.652c0-.745-.604-1.349-1.349-1.349h-6.316v17.726c.218 0 .437-.053.636-.159z" fill="#4671c6"/></g><g><path d="m62.25 106.854c-1.428 0-2.757-.568-3.745-1.6l-14.981-15.658c-.553-.579-.708-1.432-.394-2.169.315-.736 1.039-1.214 1.839-1.214h34.562c.801 0 1.524.478 1.839 1.214.314.737.159 1.59-.394 2.169l-14.981 15.658c-.988 1.031-2.317 1.6-3.745 1.6zm-12.599-16.641 11.745 12.275c.304.317.666.365.854.365s.55-.048.854-.365l11.745-12.275z" fill="#3762cc"/></g><g><path d="m28.32 119.421c-1.104 0-2-.896-2-2v-12.567c0-1.104.896-2 2-2s2 .896 2 2v12.567c0 1.104-.896 2-2 2z" fill="#3762cc"/></g><g><path d="m96.181 119.421c-1.104 0-2-.896-2-2v-12.567c0-1.104.896-2 2-2s2 .896 2 2v12.567c0 1.104-.896 2-2 2z" fill="#3762cc"/></g><g><path d="m94.612 169.787h-64.724c-1.967 0-3.568-1.601-3.568-3.567v-46.799h-16.729c-1.98 0-3.591-1.611-3.591-3.591v-26.026c0-1.98 1.611-3.591 3.591-3.591h105.317c1.98 0 3.591 1.61 3.591 3.591v26.026c0 1.979-1.611 3.591-3.591 3.591h-16.728v46.799c0 1.967-1.6 3.567-3.568 3.567zm-64.292-4h63.86v-48.366c0-1.104.896-2 2-2h18.32v-25.208h-104.5v25.208h18.32c1.104 0 2 .896 2 2zm84.589-75.574h.01z" fill="#3762cc"/></g><g><path d="m227.68 88.212h-67.86-18.728c-.879 0-1.591.712-1.591 1.591v26.026c0 .879.712 1.591 1.591 1.591h18.728v48.798c0 .866.702 1.568 1.568 1.568h64.724c.866 0 1.568-.702 1.568-1.568v-48.798h18.728c.879 0 1.591-.712 1.591-1.591v-26.025c0-.879-.712-1.591-1.591-1.591h-18.728z" fill="#4671c6"/></g><g><path d="m235.125 88.213h5v29.209h-5z" fill="#e0ebfc"/></g><g><path d="m147.125 88.213h5v29.209h-5z" fill="#e0ebfc"/></g><g><path d="m171.25 88.212h5v79.575h-5z" fill="#e0ebfc"/></g><g><path d="m211.25 88.212h5v79.575h-5z" fill="#e0ebfc"/></g><g><path d="m193.75 88.212h-17.281l14.981 15.659c1.253 1.31 3.346 1.31 4.599 0l14.981-15.659z" fill="#a4c9ff"/></g><g><path d="m193.75 106.854c-1.428 0-2.757-.568-3.745-1.6l-14.981-15.658c-.553-.579-.708-1.432-.394-2.169.315-.736 1.039-1.214 1.839-1.214h34.562c.801 0 1.524.478 1.839 1.214.314.737.159 1.59-.394 2.169l-14.981 15.658c-.988 1.031-2.317 1.6-3.745 1.6zm-12.599-16.641 11.745 12.275c.304.317.666.365.854.365s.55-.048.854-.365l11.745-12.275z" fill="#3762cc"/></g><g><path d="m159.82 119.421c-1.104 0-2-.896-2-2v-12.567c0-1.104.896-2 2-2s2 .896 2 2v12.567c0 1.104-.896 2-2 2z" fill="#3762cc"/></g><g><path d="m227.681 119.421c-1.104 0-2-.896-2-2v-12.567c0-1.104.896-2 2-2s2 .896 2 2v12.567c0 1.104-.896 2-2 2z" fill="#3762cc"/></g><g><path d="m226.112 169.787h-64.725c-1.967 0-3.568-1.601-3.568-3.567v-46.799h-16.729c-1.98 0-3.591-1.611-3.591-3.591v-26.026c0-1.98 1.611-3.591 3.591-3.591h105.317c1.98 0 3.591 1.61 3.591 3.591v26.026c0 1.979-1.611 3.591-3.591 3.591h-16.727v46.799c0 1.967-1.6 3.567-3.568 3.567zm-64.292-4h63.86v-48.366c0-1.104.896-2 2-2h18.32v-25.208h-104.5v25.208h18.32c1.104 0 2 .896 2 2zm84.589-75.574h.01z" fill="#3762cc"/></g><g><path d="m200.066 113.829h-6.315-6.316c-.745 0-1.349.604-1.349 1.35v11.652c0 .498.274.956.713 1.19l6.316 3.376c.199.106.417.159.636.159s.437-.053.636-.159l6.315-3.376c.439-.234.713-.692.713-1.19v-11.652c0-.746-.604-1.35-1.349-1.35z" fill="#6bdddd"/></g><g><path d="m162.981 63.953-14.587-9.685c-1.38-.916-3.225.074-3.225 1.73v2.304h-51.002c-1.147 0-2.076.93-2.076 2.076v10.608c0 1.147.93 2.076 2.076 2.076h51.002v2.304c0 1.657 1.845 2.646 3.225 1.73l14.587-9.685c1.238-.82 1.238-2.637 0-3.458z" fill="#a4c9ff"/></g><g><path d="m93.019 192.047 14.587 9.685c1.38.916 3.225-.074 3.225-1.73v-2.304h51.002c1.147 0 2.076-.93 2.076-2.076v-10.608c0-1.147-.93-2.076-2.076-2.076h-51.002v-2.304c0-1.657-1.845-2.646-3.225-1.73l-14.587 9.685c-1.238.82-1.238 2.637 0 3.458z" fill="#a4c9ff"/></g><g><circle cx="128" cy="131.555" fill="#eaa97d" r="24.81"/></g><g><path d="m128 150.873c-10.652 0-19.318-8.666-19.318-19.317 0-10.652 8.666-19.318 19.318-19.318 10.651 0 19.317 8.666 19.317 19.318 0 10.651-8.665 19.317-19.317 19.317z" fill="#ffea92"/></g><g><path d="m135.546 132.139c-.348-.793-.85-1.484-1.49-2.051-.598-.548-1.287-.971-2.044-1.26-.672-.255-1.57-.541-2.671-.848v-5.317c.848.401 1.385 1.062 1.635 2.009.411 1.504 1.428 1.82 2.209 1.82.605 0 1.127-.215 1.552-.64.425-.426.64-.938.64-1.523 0-.489-.132-1.028-.392-1.601-.254-.559-.616-1.108-1.074-1.626-.591-.694-1.294-1.22-2.09-1.565-.702-.303-1.535-.516-2.481-.637v-1.269c0-1.408-.907-1.561-1.296-1.561-.479 0-1.282.207-1.282 1.591v1.234c-1.948.221-3.476.877-4.546 1.951-1.136 1.142-1.712 2.62-1.712 4.394 0 1.358.297 2.492.883 3.37.58.87 1.348 1.551 2.28 2.023.841.424 1.881.816 3.095 1.164v6.065c-.396-.154-.726-.349-.986-.58-.358-.318-.628-.671-.802-1.05-.189-.411-.416-1.019-.674-1.802-.142-.449-.401-.804-.771-1.054-.363-.246-.805-.37-1.316-.37-.645 0-1.193.226-1.629.674-.433.444-.652.955-.652 1.519 0 .681.148 1.382.439 2.083.288.697.739 1.375 1.339 2.017.603.643 1.36 1.185 2.251 1.611.808.389 1.749.658 2.802.802v3.651c0 .527.089.917.271 1.195.145.221.443.484 1.04.484.667 0 .95-.334 1.069-.614.133-.314.198-.772.198-1.403v-3.334c1.314-.149 2.474-.525 3.455-1.119 1.07-.648 1.892-1.497 2.443-2.523.55-1.021.829-2.133.829-3.305 0-.938-.175-1.813-.522-2.605zm-4.535 4.935c-.405.449-.966.777-1.671.977v-5.484c.74.274 1.317.593 1.72.95.449.398.667.957.667 1.709 0 .709-.234 1.314-.716 1.848zm-5.583-13.755c.333-.29.781-.539 1.335-.745v4.608c-.596-.254-1.056-.528-1.371-.818-.358-.329-.532-.818-.532-1.493.001-.711.186-1.219.568-1.552z" fill="#eaa97d"/></g><g><path d="m128 158.365c-14.783 0-26.81-12.026-26.81-26.81s12.027-26.811 26.81-26.811 26.81 12.027 26.81 26.811-12.027 26.81-26.81 26.81zm0-49.62c-12.578 0-22.81 10.232-22.81 22.811 0 12.577 10.232 22.81 22.81 22.81s22.81-10.232 22.81-22.81-10.232-22.811-22.81-22.811z" fill="#3762cc"/></g></g></svg>