<svg id="Layer_2" enable-background="new 0 0 512 512" height="512" viewBox="0 0 512 512" width="512" xmlns="http://www.w3.org/2000/svg"><g><g><path d="m154 331v9l-29.391 48.231c-6.285 10.313-9.609 22.157-9.609 34.234 0 5.666.732 11.308 2.178 16.786l16.822 63.749h173l45.624-118.085c3.553-9.197 5.376-18.972 5.376-28.832v-25.083z" fill="#fcb98b"/></g><g><path d="m123 11h220v320h-220z" fill="#ffe352"/></g><g><path d="m397 262.944v93.138c0 9.86-1.823 19.635-5.376 28.832l-45.624 118.086h-173l-16.822-63.748c-1.446-5.478-2.178-11.12-2.178-16.786 0-12.077 3.324-23.921 9.609-34.234l29.391-48.232v-111c0-11.04 4.48-21.04 11.72-28.28 7.182-7.182 17.079-11.648 28.014-11.719 22.147-.145 40.266 18.562 40.266 40.71v101.289h70v-189.57l44.637 83.96c6.148 11.563 9.363 24.459 9.363 37.554z" fill="#ffd3b3"/></g><g><path d="m273 331v24l17-24z" fill="#fcb98b"/></g></g></svg>